<?xml version="1.0" encoding="UTF-8" standalone="no"?>
<svg width="19px" height="20px" viewBox="0 0 19 20" version="1.1" xmlns="http://www.w3.org/2000/svg" xmlns:xlink="http://www.w3.org/1999/xlink">
    <!-- Generator: Sketch 41.2 (35397) - http://www.bohemiancoding.com/sketch -->
    <title>logo_honey</title>
    <desc>Created with Sketch.</desc>
    <defs></defs>
    <g id="Pricehistory2.0" stroke="none" stroke-width="1" fill="none" fill-rule="evenodd">
        <g id="pricehistory_bestprice_nopricechange" transform="translate(-755.000000, -188.000000)" fill="#292A2A">
            <g id="dialog" transform="translate(725.000000, 168.000000)">
                <path d="M37.2913215,24.6594117 C37.3246067,23.8302398 37.5031774,22.7319508 38.0487851,22.0823419 C38.8174937,21.174526 40.3769511,21.3204494 40.6333372,22.6310318 C40.7556829,23.2701851 40.5883572,24.0543526 40.2986859,24.6034971 C39.6865077,25.8022505 38.5498626,26.7882558 37.2688315,27.1246523 C37.2800765,26.3741245 37.2692813,25.3990293 37.2913215,24.6594117 M47.7401808,36.2459972 C47.0938179,36.9969796 46.2697839,37.5793092 45.4785853,37.5456695 C44.587531,37.5124845 44.6765915,36.4028307 44.6765915,35.7754967 L44.6765915,33.1420579 C44.6878365,32.6379177 44.6878365,32.1337776 44.6320613,31.6405476 C44.4872256,30.1726771 43.6294566,28.9961986 42.0142239,28.8839149 C39.2074705,28.7716312 38.0933153,31.4950789 37.2692813,33.7357522 L37.2692813,28.8280004 C39.719793,28.4470541 43.1171341,27.0687377 43.2174395,23.9311587 C43.3847652,18.5970017 34.4175479,18.4069832 34.4508331,25.119002 C34.4620781,25.6345068 34.4620781,26.6205122 34.4620781,27.136017 C33.2588625,26.9564541 32.2899928,25.1862813 31.8442408,24.132542 C31.7884655,23.9870733 31.6328346,23.9088838 31.487999,23.9534337 C29.8057461,24.3907491 29.5610548,26.1722866 30.6972502,27.3824047 C31.6328346,28.3797748 33.1252718,28.7607211 34.4395881,28.8280004 C34.4287929,32.7161072 34.4287929,35.1145231 34.4287929,38.9912652 C34.4845681,39.5404097 35.2307867,39.686333 35.6652937,39.6972432 C36.1551261,39.7086079 37.0686704,39.5631392 37.1132006,38.9244405 C37.2692813,37.0192545 38.8840641,31.39416 41.0786395,31.39416 C41.5909619,31.39416 41.836103,31.7301018 41.836103,32.2233318 L41.836103,36.8065065 C41.836103,38.7112378 42.905728,39.9886353 44.8547124,40 C46.5814955,40 48.0964226,38.5657691 48.8538862,36.9183356 C49.0877823,36.3919205 48.0856274,35.8536862 47.7401808,36.2459972" id="logo_honey"></path>
            </g>
        </g>
    </g>
</svg>